<svg width="546" height="335" viewBox="0 0 546 335" fill="none" xmlns="http://www.w3.org/2000/svg">
<path d="M272.7 32.4C274.1 32.4 275.5 33 276.5 34C277.5 35 278.1 36.4 278.1 37.8V59.4C278.1 60.8 277.5 62.2 276.5 63.2C275.5 64.2 274.1 64.8 272.7 64.8C271.3 64.8 269.9 64.2 268.9 63.2C267.9 62.2 267.3 60.8 267.3 59.4V37.8C267.3 36.4 267.9 35 268.9 34C269.9 32.9 271.3 32.4 272.7 32.4ZM315.9 118.7C315.9 130.2 311.3 141.1 303.2 149.2C295.1 157.3 284.1 161.9 272.7 161.9C261.3 161.9 250.3 157.3 242.2 149.2C234.1 141.1 229.5 130.1 229.5 118.7V53.9C229.5 42.4 234.1 31.5 242.2 23.4C250.3 15.3 261.3 10.7 272.7 10.7C284.1 10.7 295.1 15.3 303.2 23.4C311.3 31.5 315.9 42.5 315.9 53.9V118.7ZM272.7 0C258.4 0 244.6 5.7 234.5 15.8C224.4 25.9 218.7 39.7 218.7 54V118.7C218.7 133 224.4 146.8 234.5 156.9C244.6 167 258.4 172.7 272.7 172.7C287 172.7 300.8 167 310.9 156.9C321 146.8 326.7 133 326.7 118.7V53.9C326.7 39.6 321 25.8 310.9 15.7C300.8 5.6 287 0 272.7 0Z" fill="white"/>
<path d="M24.3 334.4C19.7 334.4 15.5 333.6 11.8 332C8.2 330.3 5.3 328 3.2 325.1C1.1 322.1 0 318.8 0 314.9H9.8C10.1 318.2 11.5 321 13.8 323.3C16.2 325.5 19.7 326.6 24.3 326.6C28.7 326.6 32.1 325.5 34.6 323.4C37.2 321.2 38.4 318.4 38.4 314.9C38.4 312.2 37.7 310 36.2 308.3C34.7 306.6 32.9 305.3 30.7 304.5C28.5 303.6 25.5 302.7 21.7 301.7C17.1 300.5 13.3 299.3 10.5 298.1C7.70001 296.9 5.4 295 3.3 292.5C1.4 289.9 0.400002 286.4 0.400002 282C0.400002 278.2 1.4 274.8 3.3 271.8C5.2 268.8 8.00001 266.6 11.5 264.9C15.1 263.3 19.1 262.5 23.7 262.5C30.3 262.5 35.7 264.1 39.8 267.4C44 270.7 46.4 275.1 47 280.5H36.9C36.6 277.8 35.2 275.5 32.7 273.4C30.2 271.3 26.9 270.3 22.8 270.3C19 270.3 15.8 271.3 13.4 273.3C11 275.2 9.8 278 9.8 281.6C9.8 284.2 10.5 286.2 11.9 287.8C13.4 289.4 15.2 290.7 17.2 291.5C19.4 292.3 22.3 293.2 26.2 294.3C30.8 295.6 34.6 296.9 37.4 298.1C40.2 299.3 42.6 301.2 44.7 303.8C46.7 306.4 47.7 309.8 47.7 314.3C47.7 317.7 46.8 321 45 324C43.2 327 40.5 329.5 36.9 331.4C33.3 333.5 29.1 334.4 24.3 334.4Z" fill="white"/>
<path d="M55.7 306C55.7 300.3 56.8 295.3 59.1 291.1C61.4 286.8 64.5 283.5 68.6 281.1C72.7 278.7 77.4 277.6 82.6 277.6C89.4 277.6 95 279.2 99.3 282.5C103.7 285.8 106.7 290.4 108.1 296.2H98.2C97.3 292.8 95.4 290.2 92.7 288.2C90 286.3 86.7 285.3 82.6 285.3C77.4 285.3 73.1 287.1 69.9 290.7C66.7 294.3 65.1 299.3 65.1 305.9C65.1 312.6 66.7 317.7 69.9 321.3C73.1 324.9 77.4 326.7 82.6 326.7C86.6 326.7 90 325.8 92.7 323.9C95.4 322 97.2 319.3 98.2 315.8H108.1C106.6 321.4 103.7 326 99.2 329.4C94.8 332.8 89.2 334.4 82.6 334.4C77.4 334.4 72.7 333.2 68.6 330.9C64.6 328.5 61.4 325.2 59.1 320.9C56.8 316.8 55.7 311.8 55.7 306Z" fill="white"/>
<path d="M127.5 287.4C129.1 284.2 131.4 281.8 134.4 280C137.4 278.3 141.1 277.4 145.4 277.4V286.9H142.9C132.6 286.9 127.5 292.5 127.5 303.6V333.6H118.3V278.4H127.5V287.4Z" fill="white"/>
<path d="M178 334.6C172.8 334.6 168.1 333.4 163.9 331.1C159.7 328.7 156.4 325.4 154 321.1C151.6 316.7 150.5 311.7 150.5 306C150.5 300.4 151.7 295.4 154.1 291.1C156.6 286.7 159.9 283.4 164.2 281.1C168.4 278.7 173.2 277.6 178.4 277.6C183.6 277.6 188.4 278.8 192.6 281.1C196.8 283.4 200.2 286.7 202.6 291C205.1 295.3 206.3 300.3 206.3 306C206.3 311.7 205 316.8 202.5 321.1C200 325.4 196.6 328.7 192.3 331.1C188 333.4 183.2 334.6 178 334.6ZM178 326.6C181.3 326.6 184.4 325.8 187.3 324.3C190.2 322.8 192.5 320.4 194.3 317.3C196.1 314.2 197 310.4 197 306C197 301.6 196.1 297.8 194.4 294.7C192.7 291.6 190.4 289.3 187.5 287.8C184.7 286.3 181.6 285.5 178.3 285.5C174.9 285.5 171.8 286.3 169 287.8C166.2 289.3 164 291.6 162.3 294.7C160.6 297.8 159.8 301.6 159.8 306C159.8 310.5 160.6 314.3 162.2 317.4C163.9 320.5 166.1 322.8 168.9 324.4C171.7 325.8 174.7 326.6 178 326.6Z" fill="white"/>
<path d="M225.5 259.1V333.7H216.3V259.1H225.5Z" fill="white"/>
<path d="M248.3 259.1V333.7H239.1V259.1H248.3Z" fill="white"/>
<path d="M283.4 305.9C283.4 300.3 284.5 295.3 286.8 291.1C289.1 286.8 292.2 283.5 296.2 281.1C300.2 278.7 304.7 277.6 309.7 277.6C314 277.6 318 278.6 321.7 280.6C325.4 282.5 328.2 285.1 330.2 288.4V259.2H339.5V333.7H330.2V323.3C328.4 326.6 325.7 329.3 322.1 331.5C318.5 333.6 314.4 334.6 309.6 334.6C304.7 334.6 300.2 333.4 296.2 331C292.2 328.6 289.1 325.2 286.8 320.8C284.5 316.4 283.4 311.5 283.4 305.9ZM330.1 306C330.1 301.8 329.3 298.2 327.6 295.1C325.9 292 323.6 289.7 320.7 288C317.9 286.3 314.8 285.5 311.3 285.5C307.9 285.5 304.7 286.3 301.9 287.9C299.1 289.5 296.8 291.9 295.1 295C293.4 298.1 292.6 301.7 292.6 305.9C292.6 310.1 293.4 313.8 295.1 317C296.8 320.1 299 322.5 301.9 324.2C304.7 325.8 307.8 326.6 311.3 326.6C314.7 326.6 317.9 325.8 320.7 324.2C323.6 322.5 325.9 320.1 327.6 317C329.3 313.8 330.1 310.2 330.1 306Z" fill="white"/>
<path d="M377 334.6C371.8 334.6 367.1 333.4 362.9 331.1C358.7 328.7 355.4 325.4 353 321.1C350.6 316.7 349.5 311.7 349.5 306C349.5 300.4 350.7 295.4 353.1 291.1C355.6 286.7 358.9 283.4 363.2 281.1C367.4 278.7 372.2 277.6 377.4 277.6C382.6 277.6 387.4 278.8 391.6 281.1C395.8 283.4 399.2 286.7 401.6 291C404.1 295.3 405.3 300.3 405.3 306C405.3 311.7 404 316.8 401.5 321.1C399 325.4 395.6 328.7 391.3 331.1C387 333.4 382.2 334.6 377 334.6ZM377 326.6C380.3 326.6 383.4 325.8 386.3 324.3C389.2 322.8 391.5 320.4 393.3 317.3C395.1 314.2 396 310.4 396 306C396 301.6 395.1 297.8 393.4 294.7C391.7 291.6 389.4 289.3 386.5 287.8C383.7 286.3 380.6 285.5 377.3 285.5C373.9 285.5 370.8 286.3 368 287.8C365.2 289.3 363 291.6 361.3 294.7C359.6 297.8 358.8 301.6 358.8 306C358.8 310.5 359.6 314.3 361.2 317.4C362.9 320.5 365.1 322.8 367.9 324.4C370.7 325.8 373.7 326.6 377 326.6Z" fill="white"/>
<path d="M488.9 278.5L471.7 333.7H462.2L448.9 289.9L435.6 333.7H426.1L408.8 278.5H418.2L430.9 324.9L444.6 278.5H454L467.4 325L479.9 278.5H488.9Z" fill="white"/>
<path d="M522.9 277.5C529.6 277.5 535.1 279.5 539.2 283.6C543.4 287.6 545.4 293.5 545.4 301.1V333.7H536.3V302.5C536.3 297 534.9 292.8 532.2 289.9C529.4 286.9 525.7 285.5 520.9 285.5C516.1 285.5 512.2 287 509.3 290C506.5 293 505.1 297.4 505.1 303.2V333.7H495.9V278.5H505.1V286.4C506.9 283.6 509.4 281.4 512.5 279.8C515.7 278.2 519.1 277.5 522.9 277.5Z" fill="white"/>
</svg>
